<svg xmlns="http://www.w3.org/2000/svg" width="256" height="256" viewBox="0 0 256 256">
<g>
<path d="M 206.44 227.03 C204.20,228.11 201.05,228.99 199.43,228.98 C194.90,228.94 188.55,225.59 185.54,221.64 L 182.81 218.06 L 120.31 217.78 L 57.82 217.50 L 55.91 215.14 C54.19,213.02 54.00,211.02 54.00,195.42 L 54.00 178.07 L 58.65 172.78 C61.21,169.88 71.03,159.18 80.46,149.00 C97.36,130.78 134.37,90.34 142.83,80.85 L 147.16 76.00 L 132.75 76.00 C118.40,76.00 118.33,76.01 117.00,78.50 C113.79,84.50 103.28,87.11 96.75,83.53 C90.78,80.25 88.53,76.40 88.52,69.39 C88.50,64.66 89.00,62.47 90.56,60.33 C93.04,56.91 100.36,53.00 104.25,53.00 C108.36,53.00 114.91,56.67 116.83,60.06 L 118.50 62.99 L 141.06 62.99 C165.66,63.00 166.52,63.18 167.58,68.60 C167.68,69.11 167.78,69.52 167.80,69.94 C167.94,72.30 165.64,74.78 147.28,94.72 C146.63,95.43 145.96,96.15 145.28,96.89 L 133.06 110.16 L 127.67 110.42 C121.64,110.70 117.55,113.02 113.79,118.29 C112.01,120.78 111.49,122.88 111.47,127.64 L 111.44 133.79 L 104.47 141.63 C100.64,145.95 94.53,152.63 90.90,156.49 C87.26,160.35 80.40,167.77 75.65,173.00 L 67.00 182.50 L 67.00 205.00 L 181.90 205.00 L 184.62 201.43 C193.68,189.56 211.36,192.43 216.01,206.54 C218.37,213.68 213.79,223.47 206.44,227.03 ZM 163.33 197.64 C156.41,200.53 149.06,198.56 144.51,192.60 L 141.76 189.00 L 119.44 189.00 C97.50,189.00 97.06,188.96 94.40,186.67 C89.82,182.73 89.94,182.55 117.49,152.60 C123.48,146.09 124.96,145.00 127.77,145.00 C138.26,145.00 146.35,136.44 145.86,125.84 C145.65,121.21 145.81,120.94 153.18,113.30 C157.33,109.01 167.46,98.07 175.69,89.00 C183.93,79.93 191.42,71.88 192.33,71.13 C193.71,69.99 194.00,67.78 194.00,58.38 L 194.00 47.00 L 78.24 47.00 L 75.50 50.59 C71.52,55.80 67.37,57.99 61.45,58.00 C48.08,58.01 39.79,43.85 46.49,32.43 C52.63,21.94 68.88,21.18 75.43,31.08 L 78.03 35.00 L 203.89 35.00 L 205.44 37.22 C206.71,39.02 207.00,42.69 207.00,56.62 L 207.00 73.79 L 203.84 77.14 C202.11,78.99 193.90,87.93 185.60,97.00 C165.22,119.30 160.70,124.20 152.38,132.98 C139.58,146.49 114.00,175.26 114.00,176.14 C114.00,176.61 120.31,177.00 128.02,177.00 C141.74,177.00 142.07,176.95 143.10,174.67 C143.69,173.39 146.02,171.14 148.28,169.67 C153.56,166.25 159.87,166.11 165.47,169.28 C176.10,175.30 174.78,192.85 163.33,197.64 ZM 137.51 136.56 C134.67,139.57 133.65,140.00 129.37,140.00 C118.86,140.00 112.71,130.26 117.45,121.10 C120.88,114.46 131.39,112.24 136.61,117.06 C142.83,122.80 143.19,130.54 137.51,136.56 ZM 193.91 218.72 C196.73,220.88 202.82,220.27 205.55,217.55 C209.70,213.40 208.27,204.99 203.11,203.19 C192.57,199.51 185.17,212.01 193.91,218.72 ZM 55.33 47.61 C61.19,52.65 68.84,49.61 69.71,41.91 C70.43,35.51 67.93,32.67 61.60,32.67 C55.40,32.67 52.55,35.33 52.55,41.11 C52.55,44.36 53.13,45.71 55.33,47.61 ZM 98.69 75.20 C102.13,78.79 105.40,78.75 109.08,75.08 C114.50,69.65 111.38,61.00 104.00,61.00 C96.75,61.00 93.47,69.75 98.69,75.20 ZM 152.92 189.73 C156.86,192.38 159.42,192.03 162.75,188.36 C169.69,180.73 159.73,170.70 151.58,177.11 C149.32,178.89 148.94,179.88 149.20,183.33 C149.45,186.73 150.09,187.83 152.92,189.73 Z" fill="rgb(38,42,132)"/>
<path d="M 0.00 128.00 L 0.00 0.00 L 128.00 0.00 L 256.00 0.00 L 256.00 128.00 L 256.00 256.00 L 128.00 256.00 L 0.00 256.00 L 0.00 128.00 ZM 206.44 227.03 C213.79,223.47 218.37,213.68 216.01,206.54 C211.36,192.43 193.68,189.56 184.62,201.43 L 181.90 205.00 L 124.45 205.00 L 67.00 205.00 L 67.00 193.75 L 67.00 182.50 L 75.65 173.00 C80.40,167.77 87.26,160.35 90.90,156.49 C94.53,152.63 100.64,145.95 104.47,141.63 L 111.44 133.79 L 111.47 127.64 C111.49,122.88 112.01,120.78 113.79,118.29 C117.55,113.02 121.64,110.70 127.67,110.42 L 133.06 110.16 L 145.28 96.89 C168.95,71.19 168.26,72.06 167.58,68.60 C166.52,63.18 165.66,63.00 141.06,62.99 L 118.50 62.99 L 116.83 60.06 C114.91,56.67 108.36,53.00 104.25,53.00 C100.36,53.00 93.04,56.91 90.56,60.33 C89.00,62.47 88.50,64.66 88.52,69.39 C88.53,76.40 90.78,80.25 96.75,83.53 C103.28,87.11 113.79,84.50 117.00,78.50 C118.33,76.01 118.40,76.00 132.75,76.00 L 147.16 76.00 L 142.83 80.85 C134.37,90.34 97.36,130.78 80.46,149.00 C71.03,159.18 61.21,169.88 58.65,172.78 L 54.00 178.07 L 54.00 195.42 C54.00,211.02 54.19,213.02 55.91,215.14 L 57.82 217.50 L 120.31 217.78 L 182.81 218.06 L 185.54 221.64 C188.55,225.59 194.90,228.94 199.43,228.98 C201.05,228.99 204.20,228.11 206.44,227.03 ZM 163.33 197.64 C174.78,192.85 176.10,175.30 165.47,169.28 C159.87,166.11 153.56,166.25 148.28,169.67 C146.02,171.14 143.69,173.39 143.10,174.67 C142.07,176.95 141.74,177.00 128.02,177.00 C120.31,177.00 114.00,176.61 114.00,176.14 C114.00,175.26 139.58,146.49 152.38,132.98 C160.70,124.20 165.22,119.30 185.60,97.00 C193.90,87.93 202.11,78.99 203.84,77.14 L 207.00 73.79 L 207.00 56.62 C207.00,42.69 206.71,39.02 205.44,37.22 L 203.89 35.00 L 140.96 35.00 L 78.03 35.00 L 75.43 31.08 C68.88,21.18 52.63,21.94 46.49,32.43 C39.79,43.85 48.08,58.01 61.45,58.00 C67.37,57.99 71.52,55.80 75.50,50.59 L 78.24 47.00 L 136.12 47.00 L 194.00 47.00 L 194.00 58.38 C194.00,67.78 193.71,69.99 192.33,71.13 C191.42,71.88 183.93,79.93 175.69,89.00 C167.46,98.07 157.33,109.01 153.18,113.30 C145.81,120.94 145.65,121.21 145.86,125.84 C146.35,136.44 138.26,145.00 127.77,145.00 C124.96,145.00 123.48,146.09 117.49,152.60 C89.94,182.55 89.82,182.73 94.40,186.67 C97.06,188.96 97.50,189.00 119.44,189.00 L 141.76 189.00 L 144.51 192.60 C149.06,198.56 156.41,200.53 163.33,197.64 ZM 137.51 136.56 C143.19,130.54 142.83,122.80 136.61,117.06 C131.39,112.24 120.88,114.46 117.45,121.10 C112.71,130.26 118.86,140.00 129.37,140.00 C133.65,140.00 134.67,139.57 137.51,136.56 ZM 193.91 218.72 C185.17,212.01 192.57,199.51 203.11,203.19 C208.27,204.99 209.70,213.40 205.55,217.55 C202.82,220.27 196.73,220.88 193.91,218.72 ZM 98.69 75.20 C93.47,69.75 96.75,61.00 104.00,61.00 C111.38,61.00 114.50,69.65 109.08,75.08 C105.40,78.75 102.13,78.79 98.69,75.20 ZM 152.92 189.73 C150.09,187.83 149.45,186.73 149.20,183.33 C148.94,179.88 149.32,178.89 151.58,177.11 C159.73,170.70 169.69,180.73 162.75,188.36 C159.42,192.03 156.86,192.38 152.92,189.73 ZM 55.33 47.61 C53.13,45.71 52.55,44.36 52.55,41.11 C52.55,35.33 55.40,32.67 61.60,32.67 C67.93,32.67 70.43,35.51 69.71,41.91 C68.84,49.61 61.19,52.65 55.33,47.61 Z" fill="rgb(254,254,254)"/>
</g>
</svg>